<svg xmlns="http://www.w3.org/2000/svg" xmlns:xlink="http://www.w3.org/1999/xlink"> 
    	<symbol id="home" viewBox="0 0 476.912 476.912" >
		<g>
		<path d="M461.776,209.408L249.568,4.52c-6.182-6.026-16.042-6.026-22.224,0L15.144,209.4c-3.124,3.015-4.888,7.17-4.888,11.512
			c0,8.837,7.164,16,16,16h28.2v224c0,8.837,7.163,16,16,16h112c8.837,0,16-7.163,16-16v-128h80v128c0,8.837,7.163,16,16,16h112
			c8.837,0,16-7.163,16-16v-224h28.2c4.338,0,8.489-1.761,11.504-4.88C468.301,225.678,468.129,215.549,461.776,209.408z
			 M422.456,220.912c-8.837,0-16,7.163-16,16v224h-112v-128c0-8.837-7.163-16-16-16h-80c-8.837,0-16,7.163-16,16v128h-112v-224
			c0-8.837-7.163-16-16-16h-28.2l212.2-204.88l212.28,204.88H422.456z"/>
		</g>
	</symbol>

	<symbol id="man" viewBox="0 0 480.121 480.121" >
		<g>

<path d="m319.559 342.242c-11.782-.008-22.467-6.016-28.583-16.071-2.295-3.774-7.215-4.974-10.992-2.678-3.774 2.296-4.974 7.217-2.678 10.992 4.253 6.993 10.014 12.641 16.721 16.685l-8.316 37.621-19.973-23.031c3.713-4.264 2.666-9.126-.364-11.764-3.332-2.901-8.385-2.554-11.287.78l-14.077 16.166-35.405-39.394c3.014-5.777 4.844-12.117 5.376-18.727 68.509 20.074 137.064-31.12 137.243-102.381 0-2.724.041-61.149.044-65.122.022-30.95-25.007-56.013-55.961-56.035l-102.001-.07c-31.105 0-56.017 25.134-56.038 55.962l-.036 51.878c-5.345-2.771-8.994-8.268-8.99-14.657l.066-97.46c.007-10.473 8.528-18.987 19-18.987 3.378 0 6.259-2.067 7.444-5.024 10.759-26.84 36.814-44.925 66.454-44.925l107.569.073-9.92 26.162c-1.652 4.361.764 9.215 5.247 10.519l13.861 4.029c13.248 3.851 23.289 15.988 23.344 30.852l-.065 94.92c-.003 4.418 3.576 8.002 7.994 8.006 4.436 0 8.003-3.591 8.006-7.994 0-.591.066-94.705.064-95.296-.074-21.049-14.416-39.904-34.876-45.852l-5.543-1.611 10.954-28.89c1.981-5.227-1.884-10.832-7.475-10.836l-119.15-.082c-34.331-.01-65.062 19.924-79.315 50.366-16.731 2.606-29.58 17.107-29.592 34.56l-.066 97.46c-.01 15.541 10.863 28.254 25.053 31.648 1.464 41.229 26.174 76.176 60.861 92.741l-.001 2.039c-.012 18.439-14.96 33.319-33.425 33.319-43.195-.771-82.622 35.205-82.654 82.515l-.033 47.257c-.003 4.418 3.576 8.002 7.995 8.005 4.436 0 8.002-3.591 8.005-7.995l.033-47.257c.025-36.757 29.772-66.525 66.57-66.525 2.777.049 6.744-.303 10.501-1.103l11.128 50.668c1.412 6.425 9.555 8.473 13.851 3.533l28.808-33.127 7.169 7.977-.033 47.93c-.003 4.418 3.576 8.002 7.995 8.005 4.436 0 8.002-3.591 8.005-7.995l.033-48.008 7.024-8.067 28.918 33.345c4.305 4.965 12.441 2.888 13.855-3.515l11.197-50.654c3.388.723 6.883 1.117 10.451 1.119 36.792.024 66.554 29.819 66.527 66.617l-.032 47.257c-.003 4.418 3.576 8.002 7.994 8.005 4.437 0 8.003-3.591 8.006-7.995l.032-47.257c.033-45.634-36.874-82.597-82.517-82.626zm-170.336-132.214.044-64.841c.015-22.048 17.955-39.973 40-39.973.048 0 101.979.07 102.027.07 22.106.015 39.989 17.912 39.973 40.024l-.045 65.226c-.21 50.075-40.766 90.607-91.062 90.607-50.142-.035-90.937-40.545-90.937-91.113zm45.268 178.701-8.267-37.643c3.051-1.839 5.913-4.031 8.552-6.537l19.382 21.565z"/>

		</g>
	</symbol>

	<symbol id="case" viewBox="0 0 512 512" >
		<g>
			<path d="M508.882,263.234c-3.198-4.538-8.404-7.236-13.955-7.234h-51.191v-68.267c-0.011-9.421-7.645-17.056-17.067-17.067
				h-17.067V102.4c-0.011-9.421-7.646-17.056-17.067-17.067h-25.6v-25.6c-0.011-9.421-7.645-17.056-17.067-17.067h-25.6v-25.6
				C324.258,7.645,316.623,0.011,307.202,0h-204.8c-9.421,0.011-17.056,7.645-17.067,17.067v153.6h-76.8
				c-0.517,0.053-1.027,0.156-1.524,0.307c-0.469,0.029-0.935,0.099-1.393,0.209c-0.067,0.025-0.109,0.081-0.175,0.106
				c-0.602,0.275-1.168,0.62-1.688,1.029c-0.394,0.223-0.77,0.476-1.123,0.758c-0.367,0.411-0.692,0.858-0.97,1.333
				c-0.34,0.414-0.64,0.859-0.896,1.329c-0.15,0.444-0.264,0.9-0.34,1.362c-0.2,0.612-0.327,1.246-0.381,1.888
				c-0.002,0.074-0.043,0.135-0.043,0.211v324.267c0,0.11,0.059,0.202,0.063,0.313c0.022,1.002,0.222,1.991,0.59,2.923
				c0.044,0.108,0.115,0.198,0.163,0.303c0.204,0.481,0.453,0.943,0.742,1.378c0.227,0.288,0.473,0.56,0.736,0.815
				c0.131,0.144,0.243,0.29,0.383,0.424c0.684,0.651,1.473,1.182,2.333,1.572c0.178,0.081,0.359,0.135,0.544,0.205
				c0.948,0.379,1.957,0.583,2.978,0.601H415.69c7.211-0.012,13.641-4.545,16.075-11.333l79.237-221.858
				C512.871,273.581,512.08,267.771,508.882,263.234z M409.602,187.733h17.067V256h-17.067V187.733z M392.535,102.4V256h-54.234
				c25.37-20.427,35.095-54.636,24.265-85.355c-10.83-30.718-39.859-51.264-72.43-51.264s-61.601,20.546-72.43,51.264
				c-10.83,30.718-1.105,64.927,24.265,85.355h-54.234V102.4H392.535z M290.135,221.867c6.797-0.124,13.405,2.234,18.587,6.633
				c4.326,3.381,6.901,8.528,7.013,14.017v7.637c-16.177,7.794-35.023,7.794-51.2,0v-7.637
				C266.056,229.83,277.414,220.668,290.135,221.867z M273.069,187.733c0-9.426,7.641-17.067,17.067-17.067
				s17.067,7.641,17.067,17.067s-7.641,17.067-17.067,17.067C280.714,204.789,273.079,197.155,273.069,187.733z M314.431,211.652
				c13.2-13.37,13.114-34.894-0.192-48.159c-13.306-13.265-34.83-13.284-48.159-0.042s-13.453,34.765-0.276,48.158
				c-9.753,5.76-16.337,15.663-17.876,26.884c-17.102-17.077-22.229-42.777-12.988-65.109c9.241-22.332,31.029-36.895,55.197-36.893
				s45.955,14.566,55.194,36.899c9.239,22.333,4.11,48.032-12.994,65.108l0,0c-1.105-8.969-5.58-17.182-12.518-22.973
				C318.13,214.092,316.328,212.797,314.431,211.652z M349.869,59.733v25.6H187.735c-9.421,0.011-17.056,7.646-17.067,17.067V256
				h-25.6V59.733H349.869z M102.402,17.067h204.8v25.6H145.069c-9.421,0.011-17.056,7.645-17.067,17.067V256h-25.6V17.067z
				 M85.335,187.733v69.571l-37.071,6.18l-27.545-75.75H85.335z M17.069,227.642l15.154,41.675c2.811,7.731,10.737,12.356,18.85,11
				l29.876-4.979l-63.88,178.865V227.642z M415.69,494.933H20.644l79.237-221.867h395.045L415.69,494.933z"/>
			<path d="M187.735,357.188v18.279c0.015,14.132,11.468,25.585,25.6,25.6h119.467c14.132-0.015,25.585-11.468,25.6-25.6v-18.279
				c16.638-4.267,27.496-20.254,25.328-37.293s-16.685-29.798-33.861-29.761c-17.177-0.037-31.693,12.722-33.861,29.761
				s8.69,33.027,25.328,37.293v18.279c-0.005,4.711-3.823,8.529-8.533,8.533H213.335c-4.711-0.005-8.529-3.822-8.533-8.533v-18.279
				c16.643-4.297,27.494-20.299,25.328-37.35c-2.166-17.051-16.673-29.832-33.861-29.832s-31.695,12.781-33.861,29.832
				C160.242,336.889,171.093,352.89,187.735,357.188z M333.384,319.762c1.999-7.461,8.761-12.649,16.485-12.649
				s14.486,5.188,16.485,12.649c1.999,7.461-1.262,15.335-7.952,19.197V332.8c0-4.713-3.82-8.533-8.533-8.533
				s-8.533,3.821-8.533,8.533v6.159C334.646,335.097,331.384,327.223,333.384,319.762z M193.247,307.382
				c8.162-1.468,16.199,3.144,19.048,10.932s-0.312,16.498-7.494,20.645V332.8c0-4.713-3.82-8.533-8.533-8.533
				s-8.533,3.821-8.533,8.533v6.159c-5.262-3.025-8.513-8.624-8.533-14.693C179.16,315.974,185.085,308.85,193.247,307.382z"/>
		</g>
	</symbol>

    	<symbol id="mail" viewBox="0 0 512 512" >
		<g>
		<path d="M485.743,85.333H26.257C11.815,85.333,0,97.148,0,111.589V400.41c0,14.44,11.815,26.257,26.257,26.257h459.487
			c14.44,0,26.257-11.815,26.257-26.257V111.589C512,97.148,500.185,85.333,485.743,85.333z M475.89,105.024L271.104,258.626
			c-3.682,2.802-9.334,4.555-15.105,4.529c-5.77,0.026-11.421-1.727-15.104-4.529L36.109,105.024H475.89z M366.5,268.761
			l111.59,137.847c0.112,0.138,0.249,0.243,0.368,0.368H33.542c0.118-0.131,0.256-0.23,0.368-0.368L145.5,268.761
			c3.419-4.227,2.771-10.424-1.464-13.851c-4.227-3.419-10.424-2.771-13.844,1.457l-110.5,136.501V117.332l209.394,157.046
			c7.871,5.862,17.447,8.442,26.912,8.468c9.452-0.02,19.036-2.6,26.912-8.468l209.394-157.046v275.534L381.807,256.367
			c-3.42-4.227-9.623-4.877-13.844-1.457C363.729,258.329,363.079,264.534,366.5,268.761z"/>
		</g>
	</symbol>

</svg>